<svg xmlns="http://www.w3.org/2000/svg" viewBox="0 0 512 512"><rect width="512" height="512" fill="white"/><g fill="black"><rect x="120" y="80" width="70" height="70"/><rect x="190" y="80" width="70" height="70"/><rect x="260" y="80" width="70" height="70"/><rect x="190" y="150" width="70" height="70"/><rect x="260" y="150" width="70" height="70"/><rect x="330" y="150" width="70" height="70"/><rect x="120" y="220" width="70" height="70"/><rect x="190" y="220" width="70" height="70"/><rect x="260" y="220" width="70" height="70"/><rect x="330" y="220" width="70" height="70"/><rect x="190" y="290" width="70" height="70"/><rect x="260" y="290" width="70" height="70"/><rect x="330" y="290" width="70" height="70"/><rect x="260" y="360" width="70" height="70"/><rect x="330" y="360" width="70" height="70"/><polygon points="120,220 40,270 120,320"/></g></svg>